<?xml version="1.0" standalone="no"?>
<!DOCTYPE svg PUBLIC "-//W3C//DTD SVG 20010904//EN"
 "http://www.w3.org/TR/2001/REC-SVG-20010904/DTD/svg10.dtd">
<svg version="1.0" xmlns="http://www.w3.org/2000/svg"
 width="16.000000pt" height="16.000000pt" viewBox="0 0 16.000000 16.000000"
 preserveAspectRatio="xMidYMid meet">
<metadata>
Created by potrace 1.11, written by Peter Selinger 2001-2013
</metadata>
<g transform="translate(0.000000,16.000000) scale(0.002286,-0.002286)"
fill="#000000" stroke="none">
<path d="M1 5044 c1 -207 4 -264 14 -260 7 2 17 0 23 -6 6 -6 12 -6 16 1 4 6
14 11 22 11 9 0 12 -5 8 -12 -5 -7 -3 -8 7 -2 19 11 118 14 125 3 3 -5 16 -2
30 7 23 16 24 16 17 -2 -6 -17 -5 -17 10 -5 9 7 17 10 17 6 0 -4 6 -2 14 4 10
8 16 9 21 1 3 -6 11 -8 16 -5 5 4 9 0 9 -7 0 -10 3 -9 9 1 8 12 14 13 37 2 23
-10 26 -10 16 2 -10 12 -8 13 13 9 14 -2 28 -9 31 -14 3 -5 12 -4 20 3 8 6 21
8 31 4 10 -5 20 -8 23 -7 3 0 5 -11 5 -24 0 -13 -4 -24 -9 -24 -5 0 -3 -7 4
-15 10 -12 10 -19 2 -27 -13 -13 -16 -32 -4 -24 4 2 8 -4 8 -15 0 -10 -3 -19
-7 -19 -8 0 -4 -45 6 -59 3 -6 2 -11 -2 -11 -5 0 -6 -25 -3 -55 5 -48 4 -55
-9 -50 -14 5 -14 4 0 -10 12 -12 14 -26 9 -55 -4 -21 -3 -46 3 -55 7 -13 6
-16 -3 -10 -9 6 -9 3 -1 -13 7 -14 7 -22 1 -24 -7 -2 -5 -11 4 -23 14 -17 17
-18 26 -5 8 12 10 13 10 1 0 -8 3 -12 6 -9 3 4 19 2 35 -2 18 -5 27 -5 24 1
-9 13 9 11 24 -3 8 -7 11 -8 8 -2 -4 7 14 10 51 8 31 0 62 3 69 8 7 6 14 4 19
-3 5 -8 3 -9 -6 -4 -9 6 -11 4 -6 -4 6 -9 12 -8 26 4 13 11 20 13 25 5 4 -6
13 -9 20 -6 7 2 18 -1 25 -7 10 -9 11 -9 6 1 -4 7 -2 12 6 12 8 0 20 -6 27
-12 11 -10 13 -10 7 0 -9 15 -1 15 26 1 15 -8 19 -8 14 0 -10 15 17 14 33 -1
11 -11 12 -10 6 1 -6 10 -4 13 7 8 9 -3 21 0 28 6 10 9 11 9 6 -1 -5 -8 -2
-11 6 -10 8 2 13 -6 12 -19 -1 -14 3 -20 10 -16 6 3 5 0 -1 -8 -7 -7 -13 -17
-13 -22 0 -4 6 -5 13 -1 9 6 9 5 0 -7 -10 -12 -10 -18 -1 -27 8 -8 9 -12 1
-12 -12 0 -12 -18 0 -37 4 -6 3 -14 -3 -18 -5 -3 -10 -11 -10 -16 0 -6 5 -7
12 -3 7 5 8 3 2 -7 -14 -23 -15 -49 -1 -49 8 0 7 -4 -3 -10 -13 -9 -13 -10 0
-10 12 0 12 -2 2 -9 -8 -4 -14 -12 -14 -16 0 -4 6 -12 14 -16 7 -5 8 -9 3 -9
-6 0 -11 -9 -12 -20 -1 -13 2 -18 9 -14 7 5 8 2 2 -7 -13 -21 -14 -43 -2 -50
6 -4 7 -12 2 -20 -12 -19 -12 -32 0 -48 8 -11 8 -13 -2 -7 -9 5 -13 3 -11 -5
4 -31 -2 -59 -12 -59 -5 0 -7 6 -3 13 6 9 5 9 -7 0 -12 -10 -18 -10 -29 0 -10
10 -12 9 -7 -5 4 -12 2 -15 -8 -11 -8 3 -13 8 -11 12 3 4 -4 7 -14 7 -14 0
-16 -3 -8 -13 15 -18 3 -16 -16 3 -9 8 -16 11 -16 5 0 -6 -5 -11 -11 -11 -5 0
-8 4 -5 9 7 11 -13 9 -33 -3 -8 -5 -16 -4 -21 4 -5 8 -9 7 -14 -5 -5 -14 -9
-15 -21 -5 -8 7 -15 9 -15 4 0 -4 -5 -3 -11 3 -9 9 -16 9 -31 0 -15 -10 -21
-9 -28 3 -5 8 -10 10 -10 4 0 -20 -39 -24 -50 -6 -8 14 -9 14 -10 2 0 -13 -1
-13 -10 0 -6 10 -10 11 -10 3 0 -7 -6 -13 -14 -13 -8 0 -17 6 -19 13 -4 10 -6
10 -6 0 -1 -7 -6 -13 -12 -13 -5 0 -7 6 -3 13 5 9 4 9 -6 0 -7 -6 -19 -9 -28
-6 -11 5 -13 2 -8 -8 6 -11 4 -10 -6 1 -7 8 -19 16 -27 18 -12 3 -12 0 -1 -13
11 -13 10 -15 -4 -9 -9 3 -16 9 -16 13 0 4 -7 8 -15 8 -11 0 -12 -4 -4 -14 16
-18 4 -16 -15 3 -9 8 -16 11 -16 5 0 -6 -7 -11 -15 -11 -8 0 -15 6 -15 13 0 8
-4 7 -11 -3 -8 -12 -12 -12 -16 -2 -4 10 -8 9 -17 -4 -10 -13 -15 -14 -21 -4
-6 9 -4 11 6 5 8 -5 11 -4 6 1 -12 12 -57 13 -57 0 0 -6 -5 -4 -10 4 -9 13
-10 13 -10 0 0 -13 -1 -13 -10 0 -8 12 -10 12 -11 -5 l0 -20 -9 20 c-6 13 -9
15 -9 5 -1 -13 -2 -13 -11 0 -8 12 -10 12 -11 -5 0 -15 -2 -16 -7 -5 -4 8 -13
16 -20 18 -8 1 -11 -2 -7 -8 3 -5 1 -10 -4 -10 -6 0 -11 5 -11 12 0 6 -7 3
-16 -8 -8 -10 -13 -13 -9 -6 3 6 1 13 -4 13 -36 4 -46 2 -43 -11 1 -9 -5 -6
-17 7 -17 21 -31 21 -31 1 0 -5 5 -6 12 -2 7 4 8 3 4 -4 -4 -6 -13 -9 -21 -6
-8 4 -13 9 -10 13 2 5 -8 7 -23 6 l-27 -1 -2 -273 c-1 -264 -1 -273 18 -268
10 3 17 1 14 -3 -6 -10 48 -6 64 4 5 4 11 1 13 -5 3 -9 9 -9 25 0 14 7 24 8
28 1 3 -5 11 -10 16 -10 6 0 8 4 5 8 -3 5 1 9 9 9 8 0 15 -5 15 -10 0 -5 8 -6
17 -2 28 11 63 13 57 4 -6 -10 32 -6 42 4 4 4 13 2 20 -4 9 -7 19 -7 33 0 13
7 22 8 26 1 3 -5 11 -10 16 -10 6 0 8 4 5 8 -3 5 1 9 9 9 8 0 15 -4 15 -8 0
-9 47 -5 57 4 9 9 23 9 22 0 -1 -5 0 -10 1 -13 5 -14 6 -50 0 -50 -12 0 -1
-113 12 -121 10 -7 10 -9 -2 -9 -11 0 -15 -11 -13 -42 1 -24 4 -51 8 -60 5
-11 3 -18 -5 -18 -10 0 -10 -3 0 -15 10 -12 10 -15 -1 -16 -8 0 -5 -4 6 -9 16
-7 17 -9 3 -9 -13 -1 -15 -8 -12 -33 3 -18 7 -39 10 -47 3 -9 -1 -11 -13 -7
-15 6 -15 4 2 -14 14 -15 15 -20 4 -20 -11 0 -11 -2 1 -10 12 -8 13 -10 1 -10
-11 0 -9 -6 7 -22 11 -13 21 -26 21 -30 1 -5 1 -11 1 -15 0 -5 5 0 11 10 6 9
14 15 18 13 4 -3 29 -7 55 -11 35 -4 45 -2 40 6 -4 8 -3 9 5 5 19 -12 102 -15
95 -4 -4 7 0 6 12 0 11 -6 21 -11 24 -13 3 -1 16 3 29 10 13 7 21 9 18 4 -3
-4 23 -8 58 -8 35 0 61 3 58 8 -3 5 3 4 14 -1 12 -7 25 -7 34 -1 20 12 32 11
23 -3 -4 -7 -3 -8 4 -4 7 4 12 15 12 24 0 15 2 15 10 2 13 -21 12 -33 -2 -24
-8 5 -9 2 -5 -9 4 -10 1 -17 -5 -17 -7 0 -3 -7 8 -15 10 -8 14 -15 9 -15 -14
0 -17 -40 -3 -40 6 0 6 -6 -2 -15 -7 -8 -9 -15 -4 -15 5 0 2 -5 -6 -10 -11 -7
-11 -10 -2 -10 7 0 10 -5 6 -11 -3 -6 0 -15 7 -20 12 -7 11 -9 -1 -9 -13 0
-13 -1 0 -10 8 -5 10 -10 3 -10 -13 0 -12 -18 1 -39 6 -10 5 -12 -2 -7 -7 4
-12 1 -12 -8 0 -8 5 -18 10 -21 8 -5 7 -11 -1 -21 -9 -11 -8 -14 2 -14 9 0 10
-3 4 -8 -15 -11 -19 -46 -4 -36 8 5 9 3 3 -7 -14 -23 -15 -49 -1 -49 8 0 8 -3
-2 -9 -8 -5 -11 -16 -8 -24 3 -8 0 -20 -6 -27 -9 -9 -9 -11 -1 -7 7 4 15 0 18
-9 3 -8 2 -12 -4 -9 -15 9 -12 -4 4 -20 10 -11 16 -11 26 -2 10 10 11 9 5 -3
-8 -13 -7 -13 8 -1 12 9 17 10 17 2 0 -7 5 -9 12 -5 14 9 58 12 58 4 0 -3 9
-6 20 -6 11 0 20 4 20 7 0 4 13 4 30 -1 16 -5 30 -5 30 -1 0 3 9 7 20 7 11 0
20 -4 20 -9 0 -5 7 -4 15 3 12 10 15 10 15 -1 0 -10 3 -10 11 -2 8 8 20 8 35
3 16 -6 24 -6 24 1 0 6 6 6 18 0 11 -6 24 -6 32 -1 9 6 17 5 22 -3 6 -9 8 -9
8 0 0 7 6 11 13 9 6 -3 25 -7 40 -10 17 -4 25 -11 21 -18 -5 -7 -2 -8 7 -3 11
6 12 5 2 -6 -15 -15 -17 -33 -4 -24 6 3 6 -6 1 -24 -5 -19 -4 -33 3 -40 8 -8
8 -11 -1 -11 -6 0 -9 -7 -6 -15 4 -9 1 -15 -7 -15 -8 0 -5 -6 7 -15 10 -8 14
-15 9 -15 -14 0 -13 -53 0 -62 6 -5 6 -8 -2 -8 -6 0 -9 -9 -5 -22 4 -16 2 -19
-9 -13 -11 7 -12 6 -3 -6 14 -18 25 -61 14 -54 -14 8 -17 -17 -6 -42 l11 -23
2692 0 2692 0 0 1815 0 1815 -2965 0 c-1828 0 -2963 -4 -2959 -9 3 -5 0 -13
-5 -16 -8 -5 -5 -14 7 -28 10 -11 12 -17 6 -13 -8 4 -13 1 -13 -9 0 -10 5 -13
13 -9 7 5 7 1 -2 -10 -13 -15 -13 -19 0 -27 8 -5 9 -9 4 -9 -6 0 -11 -13 -11
-30 -1 -20 2 -27 10 -23 7 4 6 1 -1 -8 -10 -12 -10 -18 0 -29 9 -10 9 -11 -1
-5 -16 8 -13 -26 3 -37 6 -5 5 -8 -3 -8 -7 0 -10 -4 -7 -10 3 -5 0 -10 -7 -10
-9 0 -9 -3 2 -10 8 -5 11 -10 5 -10 -5 0 -3 -5 5 -10 8 -5 10 -10 3 -10 -13 0
-12 -18 1 -39 6 -10 5 -12 -2 -7 -8 5 -11 -1 -10 -18 1 -15 5 -26 9 -26 4 0 5
-9 2 -20 -3 -11 -9 -17 -14 -14 -5 3 -6 -2 -3 -10 3 -9 11 -13 18 -9 6 4 6 0
-2 -9 -9 -11 -10 -18 -2 -23 6 -3 7 -11 4 -17 -4 -7 -2 -8 5 -4 6 4 8 12 5 18
-4 5 5 2 20 -7 20 -14 25 -14 21 -3 -4 11 5 14 44 14 27 0 47 -4 45 -8 -6 -10
10 -11 20 -1 10 11 37 12 30 2 -3 -5 2 -9 11 -9 9 0 14 4 11 9 -3 4 9 7 27 6
48 -4 49 -4 42 -17 -4 -7 1 -4 9 6 9 11 16 15 16 9 0 -7 12 -10 28 -9 15 2 27
5 27 6 0 1 8 3 17 5 10 2 22 -4 28 -13 5 -10 10 -12 10 -6 0 7 9 14 20 17 11
3 18 2 15 -3 -3 -4 2 -10 10 -13 9 -4 12 -1 9 7 -8 20 54 15 62 -4 10 -23 12
-50 2 -44 -4 3 -8 0 -8 -5 0 -6 4 -11 9 -11 5 0 12 -7 15 -16 5 -13 3 -14 -7
-6 -10 8 -13 6 -13 -9 0 -10 3 -19 6 -19 9 0 6 -38 -3 -46 -4 -4 -2 -14 5 -21
7 -9 8 -17 2 -21 -12 -9 -17 -35 -5 -28 5 3 8 -5 7 -18 -1 -18 -4 -22 -14 -14
-9 8 -11 7 -6 -6 3 -9 10 -16 16 -16 5 0 7 -4 4 -8 -9 -15 -15 -63 -7 -58 4 3
7 -10 7 -28 -1 -20 -5 -32 -11 -28 -5 3 -4 -1 2 -10 7 -8 10 -18 6 -22 -10 -9
-13 -37 -4 -31 4 2 7 -11 7 -30 -1 -28 -3 -31 -16 -22 -11 9 -10 5 2 -15 l18
-27 -27 14 c-24 13 -29 13 -36 -1 -7 -12 -12 -12 -22 -4 -8 7 -19 9 -25 5 -5
-3 -10 -1 -10 6 0 7 -6 4 -14 -7 -8 -10 -18 -16 -22 -11 -4 4 -2 7 4 7 7 0 12
4 12 8 0 4 -9 8 -20 8 -11 0 -20 -4 -20 -9 0 -5 -6 -5 -13 1 -8 7 -26 8 -51 2
-31 -7 -36 -6 -32 6 3 9 1 12 -4 9 -6 -3 -10 -13 -10 -21 0 -13 -3 -13 -17 2
-11 11 -18 13 -21 5 -5 -14 -32 -15 -32 0 0 5 5 7 12 3 7 -4 8 -3 4 5 -9 14
-26 5 -26 -15 0 -13 -3 -13 -17 2 -11 11 -18 13 -21 5 -2 -6 -11 -11 -20 -11
-14 0 -14 2 -3 9 8 5 -3 8 -32 7 -27 0 -43 -5 -39 -11 3 -5 -1 -4 -10 3 -9 7
-22 11 -29 10 -9 -2 -13 5 -12 20 2 13 -1 21 -6 17 -9 -5 -6 33 4 63 2 6 -1
12 -8 12 -8 0 -8 3 2 9 11 7 11 9 0 14 -11 4 -10 9 5 21 11 9 15 16 10 16 -5
0 -11 15 -12 33 -1 17 -5 40 -8 50 -3 9 0 17 6 17 6 0 8 -5 4 -12 -5 -7 -3 -8
5 -4 9 6 8 13 -5 27 -9 10 -12 19 -7 19 16 0 10 44 -7 52 -10 5 -8 7 9 7 24 1
24 1 5 16 -10 8 -14 15 -7 15 8 0 9 9 3 30 -6 20 -5 30 2 30 6 0 6 6 -2 15 -9
10 -9 15 -1 15 6 0 11 5 11 11 0 5 -4 8 -8 5 -4 -2 -8 7 -7 22 0 26 -16 35
-40 23 -19 -10 -44 -8 -38 3 4 6 -1 5 -10 -3 -14 -11 -17 -11 -17 0 0 11 -2
11 -10 -1 -5 -8 -10 -10 -10 -5 0 16 -43 13 -58 -4 -8 -9 -11 -11 -8 -5 3 7
-1 14 -9 18 -8 3 -15 2 -15 -3 0 -4 -7 -8 -15 -8 -8 0 -12 4 -9 9 6 10 -10 11
-20 1 -10 -11 -37 -12 -30 -2 3 5 -2 9 -11 9 -10 0 -13 -5 -9 -12 5 -7 3 -8
-7 -2 -19 12 -33 12 -41 -1 -5 -6 -8 -5 -8 4 0 11 -3 11 -15 1 -10 -9 -15 -9
-15 -1 0 6 -5 11 -11 11 -5 0 -7 -6 -3 -12 6 -10 4 -10 -7 0 -7 6 -17 12 -22
12 -4 0 -5 -6 -1 -12 5 -8 0 -7 -11 2 -11 9 -16 10 -11 3 4 -7 2 -13 -3 -13
-6 0 -11 5 -11 12 0 9 -3 9 -12 0 -7 -7 -15 -12 -19 -12 -11 0 -17 48 -7 58 6
6 5 13 -3 17 -8 6 -10 4 -4 -5 6 -9 4 -11 -4 -5 -9 5 -10 10 -2 18 15 15 14
30 -2 21 -9 -6 -9 -4 1 8 9 11 10 18 2 23 -13 8 -13 25 1 25 5 0 7 -5 3 -12
-4 -6 -3 -8 4 -5 5 4 8 16 5 27 -3 11 -9 17 -14 14 -5 -3 -6 2 -3 10 3 9 11
13 18 9 7 -4 7 -2 -1 7 -9 10 -9 18 -1 34 11 20 10 20 -7 6 -11 -9 -16 -10
-11 -2 13 21 18 64 6 57 -6 -3 -7 0 -4 9 3 9 10 14 14 11 5 -3 12 -1 15 5 4 6
3 10 -2 9 -28 -5 -36 2 -18 14 14 11 15 16 5 22 -9 6 -11 4 -5 -5 5 -9 4 -11
-3 -6 -9 5 -8 12 1 26 9 16 9 24 -1 41 -9 14 -10 19 -2 14 11 -7 11 2 0 73 0
1 -121 2 -270 2 l-270 0 1 -266z m2174 -264 c3 0 2 6 -1 14 -6 15 41 17 64 3
7 -5 12 -3 12 5 0 9 3 9 8 2 4 -6 16 -14 27 -17 19 -7 19 -7 1 7 -18 14 -18
15 3 13 11 -1 21 -5 21 -10 0 -5 7 -4 16 4 13 10 17 10 25 -2 8 -12 10 -12 19
1 6 10 10 11 10 3 0 -7 7 -13 15 -13 8 0 15 5 15 12 0 6 7 3 15 -8 13 -16 14
-16 9 -1 -3 9 -1 17 5 17 6 0 11 -5 11 -12 0 -9 3 -9 12 0 17 17 28 15 29 -5
0 -15 2 -15 9 2 5 12 9 15 9 6 1 -12 4 -12 13 -3 9 9 15 9 27 -1 12 -9 13 -9
7 1 -4 6 -3 12 3 12 5 0 12 -6 14 -12 4 -10 8 -9 16 2 6 9 11 10 11 3 0 -12
17 -12 37 0 6 4 14 1 17 -5 5 -10 7 -10 12 0 3 6 10 12 15 12 6 0 7 -5 3 -12
-5 -8 -2 -9 11 -4 18 6 18 6 2 -12 -9 -10 -17 -23 -17 -28 0 -5 4 -2 10 6 5 8
12 11 16 7 4 -3 1 -13 -6 -22 -10 -12 -10 -15 0 -15 9 0 7 -7 -5 -20 -18 -20
-18 -21 1 -14 17 7 17 6 5 -9 -10 -13 -10 -17 -1 -17 7 0 5 -7 -7 -17 -10 -10
-14 -15 -9 -10 6 4 13 7 17 7 9 0 5 -42 -5 -58 -4 -7 -3 -12 2 -12 10 0 7 -54
-3 -71 -4 -5 -2 -9 2 -9 11 0 11 -66 0 -76 -4 -5 -5 0 -2 11 6 16 5 17 -3 5
-8 -10 -8 -18 -1 -27 6 -7 8 -17 4 -23 -3 -5 -1 -10 5 -10 8 0 8 -6 0 -20 -6
-11 -7 -20 -2 -20 5 0 7 -12 5 -27 -2 -16 -5 -33 -5 -39 -2 -17 -56 -45 -64
-32 -4 7 -2 8 4 4 8 -5 10 -1 5 9 -5 13 -7 14 -14 3 -5 -7 -9 -9 -9 -4 0 5 -9
1 -20 -9 -17 -16 -20 -16 -26 -2 -3 9 -12 13 -20 10 -8 -3 -11 -10 -7 -17 4
-6 -1 -4 -11 3 -10 8 -34 14 -54 13 -19 -2 -38 2 -42 8 -5 8 -9 6 -13 -5 -5
-10 -3 -14 5 -9 7 4 8 3 4 -4 -5 -9 -14 -7 -32 4 -13 9 -24 12 -24 6 0 -5 -7
-13 -16 -16 -13 -5 -14 -3 -6 6 8 10 3 13 -26 13 -20 0 -42 -6 -48 -14 -9 -11
-12 -12 -19 -1 -6 9 -4 11 5 5 9 -5 11 -4 6 3 -5 8 -13 9 -25 2 -10 -5 -21 -7
-23 -4 -10 10 -48 13 -48 3 0 -13 -14 -11 -36 7 -10 8 -13 13 -6 9 8 -4 12 3
12 25 0 22 4 29 13 24 9 -6 9 -5 0 8 -7 8 -9 19 -5 23 4 5 1 5 -5 1 -20 -11
-15 15 5 31 16 14 16 14 0 9 -10 -3 -20 0 -24 6 -4 7 -3 8 4 4 8 -5 12 1 12
18 0 13 -6 27 -12 29 -8 3 -5 6 5 6 11 1 15 6 11 12 -11 18 -12 109 -1 102 6
-3 7 -1 3 5 -3 5 -3 12 1 15 5 2 2 2 -5 1 -9 -3 -10 4 -6 22 4 17 2 29 -7 35
-11 7 -10 9 5 9 15 0 16 3 6 15 -10 12 -10 15 1 16 11 0 11 2 1 6 -11 4 -11 7
0 17 7 6 11 10 9 9 -2 -2 -10 5 -16 14 -14 19 -9 46 7 37 6 -4 5 2 -1 14 -16
29 -14 36 5 18 8 -9 17 -16 19 -16z m-1105 -334 c0 -3 -4 -8 -10 -11 -5 -3
-10 -1 -10 4 0 6 5 11 10 11 6 0 10 -2 10 -4z m105 -206 c-3 -5 -12 -10 -18
-10 -7 0 -6 4 3 10 19 12 23 12 15 0z m573 -534 c23 -2 29 2 25 14 -3 10 0 9
11 -4 16 -20 16 -20 17 0 0 10 3 13 6 7 2 -7 11 -13 19 -13 9 0 13 4 10 8 -2
4 4 8 15 8 21 0 25 -12 7 -20 -7 -2 -3 -4 9 -2 12 1 26 6 30 11 5 4 2 5 -6 0
-10 -6 -12 -4 -7 4 6 9 13 8 27 -5 17 -15 19 -15 25 0 3 9 10 13 15 10 5 -3 7
-8 5 -12 -2 -4 15 -7 39 -7 24 0 41 3 39 7 -2 4 0 9 5 12 5 3 12 -1 15 -10 5
-12 10 -14 20 -5 7 6 16 8 19 4 4 -3 14 0 24 8 15 12 16 12 10 -4 -5 -14 -3
-16 12 -8 16 9 18 7 15 -14 -1 -14 2 -25 7 -25 6 0 7 -5 3 -12 -13 -21 -14
-59 -1 -52 9 5 9 4 0 -6 -8 -9 -9 -19 -3 -31 7 -12 6 -20 0 -24 -8 -5 -7 -12
2 -23 9 -10 9 -13 1 -9 -8 5 -11 0 -10 -13 1 -11 6 -20 12 -20 5 0 4 -4 -4 -9
-12 -7 -12 -13 -3 -24 7 -7 9 -17 5 -20 -10 -11 -12 -77 -1 -77 5 0 6 -6 2
-12 -12 -19 -12 -48 0 -48 8 0 8 -3 0 -8 -12 -8 -13 -40 -1 -59 4 -6 3 -14 -3
-18 -6 -4 -8 -10 -5 -15 3 -4 -2 -10 -10 -14 -8 -3 -15 -1 -15 5 0 6 -5 7 -12
3 -16 -10 -76 -12 -91 -2 -6 4 -20 0 -30 -9 -14 -13 -17 -13 -12 -2 4 10 -2
14 -19 14 -20 0 -22 -3 -13 -14 10 -12 8 -12 -13 -1 -14 8 -29 13 -35 11 -29
-9 -56 -11 -52 -3 3 4 -3 8 -13 8 -10 0 -16 -4 -14 -8 3 -4 1 -8 -5 -8 -5 0
-13 5 -16 10 -4 6 -11 8 -16 4 -16 -10 -61 -15 -56 -6 3 4 -3 8 -13 8 -10 0
-16 -4 -14 -8 3 -4 1 -8 -5 -8 -5 0 -13 5 -16 10 -4 7 -13 6 -27 -1 -15 -8
-22 -8 -28 1 -5 9 -9 9 -14 1 -4 -6 -3 -11 2 -11 5 0 9 -7 9 -15 0 -12 -3 -12
-16 -2 -13 10 -13 8 1 -14 11 -17 13 -31 7 -40 -13 -20 -11 -31 4 -23 6 4 3
-3 -8 -16 -11 -13 -14 -20 -6 -15 10 6 12 2 6 -14 -4 -13 -2 -21 5 -21 6 0 8
-5 5 -10 -4 -6 -10 -8 -14 -5 -5 2 -6 -7 -3 -21 3 -17 7 -22 12 -13 5 7 7 2 7
-14 -2 -18 -5 -23 -14 -16 -8 7 -10 5 -6 -10 3 -12 9 -19 12 -16 4 2 8 -2 8
-9 0 -8 -7 -12 -16 -9 -11 3 -10 0 3 -11 19 -15 11 -22 -18 -17 -5 1 -4 -5 4
-13 15 -19 24 -21 14 -4 -4 7 -3 8 5 4 8 -5 9 -12 2 -20 -11 -13 -10 -34 2
-53 4 -6 2 -15 -4 -19 -8 -5 -9 -3 -4 7 5 8 4 11 0 6 -13 -12 -13 -46 0 -41 6
3 12 -2 12 -10 0 -8 -7 -12 -16 -10 -14 4 -13 3 1 -7 15 -12 15 -14 1 -24 -13
-10 -13 -14 -3 -20 9 -6 11 -4 5 6 -6 11 -5 12 5 2 17 -15 12 -21 -28 -32 -26
-8 -30 -7 -26 7 5 15 4 15 -9 0 -17 -21 -28 -24 -21 -5 5 13 -2 13 -73 4 -13
-2 -26 -6 -29 -10 -4 -4 -16 1 -27 10 -11 10 -17 12 -12 4 6 -10 2 -12 -15 -6
-17 5 -21 4 -16 -6 4 -8 0 -5 -8 5 -14 17 -19 16 -18 -4 0 -3 -12 -5 -28 -5
-16 -1 -26 3 -23 8 3 5 -4 6 -17 2 -14 -5 -20 -3 -16 3 7 12 -7 10 -44 -5 -14
-6 -29 -8 -35 -4 -5 4 -25 6 -43 5 -27 -2 -35 3 -48 28 -10 20 -11 28 -3 23 8
-5 10 -4 5 4 -11 18 -18 63 -8 57 5 -3 9 1 9 9 0 8 -4 15 -8 15 -9 0 -6 51 4
68 5 6 4 12 -1 12 -12 0 -10 50 2 69 6 9 5 12 -2 7 -14 -8 -11 56 3 66 6 5 6
8 -2 8 -12 0 -12 17 0 38 5 6 4 12 0 12 -5 0 -9 15 -9 34 0 19 3 33 7 30 4 -2
6 4 4 13 -1 10 -8 17 -16 15 -9 -2 -10 0 -1 11 7 8 8 18 4 22 -4 5 -1 5 6 1 7
-4 20 -2 28 5 13 10 17 10 24 -1 7 -11 11 -11 24 -1 10 8 16 9 16 3 0 -11 38
-10 57 1 6 4 14 3 18 -3 3 -5 11 -10 16 -10 6 0 8 4 5 8 -2 4 4 8 14 8 10 0
16 -4 13 -9 -3 -5 4 -4 15 2 15 8 21 8 25 -2 3 -9 7 -9 20 2 10 8 17 9 17 3 0
-12 39 -10 59 2 8 5 16 3 21 -5 7 -10 11 -10 24 0 12 10 16 11 16 1 0 -8 6 -9
18 -5 18 8 23 8 64 2 15 -2 25 0 22 4 -3 5 0 9 6 9 6 0 9 4 6 9 -3 5 0 11 7
14 15 6 16 42 2 54 -4 5 -5 1 0 -7 5 -8 4 -12 0 -7 -11 9 -14 48 -4 42 4 -3 9
2 13 10 3 8 0 17 -6 21 -7 5 -8 2 -3 -7 5 -8 4 -11 0 -6 -14 12 -14 48 0 37
14 -11 14 25 0 37 -4 5 -5 2 0 -6 5 -10 4 -12 -4 -7 -6 4 -8 12 -5 18 4 6 0
15 -7 20 -11 8 -10 9 3 5 9 -3 19 1 22 9 3 8 2 13 -3 10 -5 -3 -12 1 -15 10
-3 8 -2 13 3 10 5 -3 12 1 15 10 3 8 2 12 -4 9 -6 -3 -10 1 -10 10 0 10 5 13
13 9 7 -5 7 -1 -2 10 -18 22 -23 60 -6 46 14 -11 14 25 0 37 -4 5 -5 1 0 -7 5
-8 4 -12 0 -7 -11 9 -14 48 -4 42 4 -3 10 2 13 11 3 9 2 12 -5 8 -7 -4 -10 4
-8 22 2 16 0 35 -4 41 -6 9 -3 11 9 6 12 -5 15 -3 9 6 -6 10 -3 11 12 3 11 -6
25 -7 33 -2 9 6 17 5 22 -3 5 -8 8 -5 8 8 0 15 2 17 9 7 4 -8 22 -15 39 -16z
m1091 -523 c6 6 11 7 11 2 0 -10 66 -12 76 -3 3 3 20 2 39 -2 21 -5 38 -3 44
3 6 6 11 7 11 1 0 -10 51 -11 68 0 7 4 12 4 12 -1 0 -10 52 -9 68 1 7 4 12 3
12 -2 0 -6 8 -8 18 -5 22 5 59 -42 41 -53 -6 -3 -9 -14 -6 -24 2 -10 1 -24 -4
-31 -5 -8 -2 -20 8 -32 16 -17 16 -17 -3 -11 -15 6 -17 5 -9 -7 6 -8 9 -25 8
-39 -1 -14 -4 -39 -6 -57 -3 -27 -1 -30 12 -20 12 10 13 9 2 -11 -7 -13 -10
-28 -8 -35 2 -7 0 -20 -4 -29 -7 -12 -4 -20 8 -27 17 -10 17 -10 -1 -11 -13 0
-16 -4 -10 -12 5 -7 8 -26 7 -43 -5 -48 -5 -49 1 -73 4 -20 3 -22 -10 -11 -12
10 -13 9 -8 -4 6 -17 -11 -18 -35 -3 -10 6 -12 5 -7 -2 4 -7 1 -12 -8 -12 -9
0 -16 5 -16 11 0 6 -7 3 -16 -5 -19 -19 -31 -21 -15 -3 8 11 6 13 -9 12 -11
-1 -23 -5 -27 -10 -5 -4 -2 -5 6 0 10 6 12 4 6 -5 -6 -10 -10 -10 -19 2 -10
14 -13 14 -25 0 -13 -13 -16 -13 -26 2 -12 15 -13 15 -19 0 -6 -15 -8 -15 -28
2 -12 11 -18 13 -14 7 4 -7 2 -13 -3 -13 -6 0 -11 6 -12 13 0 10 -2 10 -6 0
-2 -7 -11 -13 -19 -13 -8 0 -14 6 -15 13 0 10 -2 10 -6 0 -2 -7 -11 -13 -19
-13 -8 0 -14 6 -15 13 0 9 -2 9 -6 -1 -4 -10 -8 -10 -21 0 -12 10 -14 10 -8 1
4 -8 1 -13 -9 -13 -9 0 -13 5 -9 11 5 8 1 8 -14 0 -13 -7 -23 -7 -27 -2 -3 5
-17 7 -31 5 -54 -10 -57 -8 -43 19 11 19 10 20 -2 10 -12 -10 -15 -8 -15 8 0
10 7 19 16 20 10 0 9 3 -5 9 -11 5 -15 9 -9 9 8 1 9 12 4 36 -6 27 -5 35 6 35
8 0 14 5 14 11 0 5 -4 8 -9 4 -5 -3 -12 -1 -16 5 -3 5 0 10 7 10 9 0 9 3 -2
10 -13 8 -13 10 0 10 11 0 11 3 2 12 -9 9 -7 15 6 25 9 8 11 12 5 8 -7 -3 -13
-1 -13 5 0 6 -6 8 -12 5 -7 -4 -5 0 5 8 16 13 17 19 7 37 -10 18 -9 21 1 15 9
-6 10 -3 5 11 -10 24 -14 114 -6 114 4 0 4 14 2 31 -4 25 -2 30 9 24 8 -5 5 2
-6 15 -11 13 -14 20 -7 16 6 -4 12 -3 12 2 0 6 14 9 31 8 16 -1 32 1 35 5 2 4
17 4 33 -1 19 -5 33 -4 40 3z m-1166 -553 c4 0 5 6 2 13 -4 6 1 3 9 -7 16 -20
16 -20 17 0 0 10 3 13 6 7 2 -7 9 -13 14 -13 6 0 7 6 4 13 -4 6 1 3 9 -7 16
-20 16 -20 17 0 0 10 3 13 6 7 2 -7 9 -13 14 -13 6 0 7 5 3 11 -3 6 6 3 22 -7
20 -13 25 -14 17 -4 -9 13 -6 15 22 15 18 0 31 -3 29 -7 -3 -4 22 -6 55 -4 41
2 59 -1 55 -8 -3 -6 1 -3 9 7 11 14 16 15 20 5 4 -10 8 -10 16 2 7 10 11 11
11 3 0 -7 7 -13 15 -13 8 0 15 6 16 13 0 10 2 10 6 0 2 -7 11 -13 19 -13 10 0
12 5 8 13 -5 7 0 6 11 -3 14 -11 17 -12 11 -1 -6 9 -5 12 5 9 8 -3 13 -10 12
-16 -2 -6 3 -9 11 -6 9 4 12 -5 10 -36 -1 -22 2 -40 8 -40 7 0 7 -4 1 -12 -13
-17 -12 -48 1 -48 6 0 5 -4 -3 -9 -10 -6 -11 -13 -2 -29 8 -14 8 -23 1 -27 -8
-5 -8 -11 -1 -19 6 -7 8 -16 4 -19 -12 -12 -11 -77 1 -77 7 0 7 -3 1 -8 -14
-10 -17 -65 -3 -56 7 5 8 3 4 -5 -11 -18 -16 -90 -6 -96 12 -7 1 -42 -13 -42
-7 0 -22 -3 -34 -7 -13 -4 -23 -3 -23 2 0 5 -7 9 -15 9 -8 0 -12 -4 -9 -9 6
-10 -4 -9 -31 1 -11 5 -25 4 -32 -1 -9 -7 -13 -7 -13 2 0 10 -3 10 -15 0 -11
-9 -15 -9 -15 -1 0 7 -5 9 -12 5 -18 -11 -48 -12 -48 -2 0 5 -10 4 -21 -3 -17
-9 -23 -8 -30 2 -7 11 -9 11 -9 -1 0 -9 -3 -11 -8 -5 -9 13 -35 18 -27 5 8
-12 -5 -13 -25 0 -9 5 -19 5 -27 -2 -9 -7 -13 -7 -13 1 0 9 -5 9 -22 0 -17 -9
-23 -9 -26 1 -3 9 -6 9 -13 -1 -7 -12 -9 -12 -9 0 0 11 -3 11 -17 0 -15 -12
-16 -12 -8 1 8 13 6 13 -8 2 -11 -10 -21 -11 -34 -3 -17 9 -17 10 -1 16 10 4
15 12 11 18 -10 16 -11 47 -2 42 4 -3 9 2 13 10 3 8 0 17 -6 21 -7 5 -8 2 -3
-7 5 -8 4 -11 0 -6 -11 9 -14 48 -4 41 4 -2 10 0 14 6 3 5 2 10 -3 10 -6 0
-12 7 -16 15 -3 8 -2 14 2 14 21 -3 24 3 6 17 -13 11 -14 14 -3 11 9 -3 16 1
16 9 0 7 -4 11 -8 8 -4 -2 -8 13 -7 35 0 21 -3 45 -7 52 -5 7 -4 10 2 6 6 -4
13 0 17 8 3 8 2 14 -2 14 -21 -3 -24 3 -6 16 18 13 18 14 1 15 -10 0 -15 5
-12 10 4 6 12 7 18 3 7 -3 4 3 -5 14 -20 22 -23 33 -7 33 5 0 7 -5 3 -12 -4
-7 -3 -8 4 -4 9 5 8 12 -1 26 -9 16 -9 24 1 40 6 11 12 23 12 27 0 5 -5 1 -10
-7 -8 -13 -10 -12 -10 4 0 23 31 48 45 35 5 -5 13 -9 18 -9z"/>
<path d="M523 2653 c4 -6 3 -14 -3 -18 -5 -3 -10 0 -10 7 0 9 -3 9 -8 2 -7
-10 -39 -11 -72 -3 -9 2 -14 -2 -12 -11 2 -12 0 -12 -11 2 -12 15 -14 15 -25
0 -8 -11 -11 -12 -9 -3 1 7 -4 16 -12 19 -10 3 -12 0 -8 -14 7 -18 6 -18 -8 0
-8 11 -15 14 -15 8 0 -7 -5 -12 -11 -12 -5 0 -7 6 -3 13 5 9 4 9 -6 0 -9 -8
-19 -9 -32 -2 -14 8 -18 6 -18 -8 -1 -17 -1 -17 -11 0 -10 18 -11 18 -25 0 -9
-11 -13 -13 -12 -4 2 7 -3 16 -11 19 -10 3 -12 0 -8 -14 7 -18 6 -18 -8 0 -8
11 -15 14 -15 8 0 -7 -5 -12 -11 -12 -5 0 -7 6 -3 13 5 9 4 9 -6 0 -9 -8 -19
-9 -32 -2 -14 8 -18 6 -18 -8 -1 -17 -1 -17 -11 0 -9 15 -13 16 -26 5 -18 -15
-23 -15 -33 2 -4 7 -13 10 -19 6 -7 -5 -10 -95 -10 -279 l1 -272 34 0 c19 0
34 4 34 9 0 5 6 4 13 -3 10 -8 17 -7 26 2 9 9 14 9 20 -1 6 -10 14 -10 34 -3
18 7 27 7 27 0 0 -6 7 -6 20 1 15 8 20 8 20 -2 0 -9 3 -9 10 2 9 13 10 13 10
0 0 -13 1 -13 10 0 5 8 10 10 10 3 0 -12 18 -12 39 1 8 5 16 4 21 -4 8 -13 19
-13 38 2 8 7 12 7 12 -2 0 -10 3 -10 14 -1 10 8 16 9 21 1 3 -6 11 -7 18 -3
17 10 57 10 57 -1 0 -6 5 -5 12 2 16 16 31 15 22 0 -5 -10 -4 -10 5 -2 16 15
20 44 10 71 -5 13 -4 25 1 28 6 4 10 11 10 16 0 6 -6 7 -12 3 -9 -5 -9 -2 1 9
7 9 9 17 4 17 -5 0 -9 9 -9 19 0 11 4 17 8 15 4 -3 8 0 8 5 0 6 -5 11 -11 11
-8 0 -8 5 1 15 9 11 9 15 1 15 -7 0 -9 5 -6 10 4 6 12 8 18 4 7 -3 4 1 -5 9
-16 13 -16 15 0 31 16 16 16 17 -3 10 -18 -7 -18 -6 -6 9 11 14 11 17 0 17 -9
0 -10 3 -4 8 12 8 16 42 6 42 -9 0 -8 31 2 47 4 7 0 17 -10 23 -17 11 -17 11
0 6 20 -6 23 14 5 33 -10 11 -10 13 0 7 6 -4 12 -3 12 3 0 5 -6 12 -12 14 -10
4 -10 6 0 6 6 1 12 6 12 12 0 5 -4 7 -10 4 -5 -3 -10 -2 -10 4 0 5 5 11 11 13
7 2 4 10 -7 18 -10 8 -15 10 -11 3z"/>
</g>
</svg>
